<svg id="Main_Nav" data-name="Main Nav" xmlns="http://www.w3.org/2000/svg" width="35" height="35" viewBox="0 0 35 35">
  <defs>
    <style>
      .cls-1 {
        fill: #fdfdff;
        fill-rule: evenodd;
      }
    </style>
  </defs>
  <g id="LOGO_small" data-name="LOGO small">
    <path id="Logo" class="cls-1" d="M9.093,22.2c-0.536-.535-0.738-0.266-0.857-0.147-3.085,3.079-5.823,10.51-4.375,9.784,5.27-2.642,6.148-1.856,9.232-4.935,0.12-.119.394-0.315-0.158-0.866Zm0,0,16.627-.041A0.715,0.715,0,0,1,26,21.368C32.8,14.03,37.131,4.253,33.924,1.052,30.736-2.132,21.245,2.314,13.9,9.062a0.989,0.989,0,0,1-.944.28L10.664,8.8a2.372,2.372,0,0,0-2,.564l-8.4,8.387C-0.194,18.209-.044,18.67.6,18.771l6.075,0.953a2.634,2.634,0,0,0,2.014-.655,0.435,0.435,0,0,1,.628,0l6.622,6.611a0.439,0.439,0,0,1,.014.641,2.627,2.627,0,0,0-.656,2.01L16.254,34.4c0.1,0.645.563,0.794,1.025,0.333l8.4-8.387a2.361,2.361,0,0,0,.565-1.992ZM23.84,11.324a3.64,3.64,0,1,1,5.152,0,3.632,3.632,0,0,1-5.152,0h0Zm0,0"/>
  </g>
</svg>
